<?xml version="1.0"?>
<svg xmlns="http://www.w3.org/2000/svg" id="Layer_2" data-name="Layer 2" fill="#f0f0f5" viewBox="0 0 128 128"  ><title>DUMBBELL</title><path d="M126.25,53.375h-6.5v-9a5.757,5.757,0,0,0-5.75-5.75h-8a5.717,5.717,0,0,0-2.25.459V36.5A5.757,5.757,0,0,0,98,30.75H88a5.757,5.757,0,0,0-5.75,5.75V53.375H45.747V36.5A5.757,5.757,0,0,0,40,30.75H30a5.757,5.757,0,0,0-5.75,5.75v2.584A5.717,5.717,0,0,0,22,38.625H14a5.757,5.757,0,0,0-5.75,5.75v9H1.75A1.75,1.75,0,0,0,0,55.125v17.75a1.75,1.75,0,0,0,1.75,1.75h6.5v9A5.757,5.757,0,0,0,14,89.375h8a5.717,5.717,0,0,0,2.25-.459V91.5A5.757,5.757,0,0,0,30,97.25H40a5.757,5.757,0,0,0,5.75-5.75V74.625H82.253V91.5A5.757,5.757,0,0,0,88,97.25H98a5.757,5.757,0,0,0,5.75-5.75V88.916a5.717,5.717,0,0,0,2.25.459h8a5.757,5.757,0,0,0,5.75-5.75v-9h6.5a1.75,1.75,0,0,0,1.75-1.75V55.125A1.75,1.75,0,0,0,126.25,53.375ZM3.5,71.125V56.875H8.248v14.25ZM22,85.875H14a2.252,2.252,0,0,1-2.25-2.25V44.375A2.252,2.252,0,0,1,14,42.125h8a2.252,2.252,0,0,1,2.25,2.25v39.25A2.252,2.252,0,0,1,22,85.875ZM42.247,91.5A2.252,2.252,0,0,1,40,93.75H30a2.252,2.252,0,0,1-2.25-2.25v-55A2.252,2.252,0,0,1,30,34.25H40a2.252,2.252,0,0,1,2.25,2.25Zm3.5-20.375V56.875H82.253v14.25ZM100.253,91.5A2.252,2.252,0,0,1,98,93.75H88a2.252,2.252,0,0,1-2.25-2.25v-55A2.252,2.252,0,0,1,88,34.25H98a2.252,2.252,0,0,1,2.25,2.25Zm16-7.875a2.252,2.252,0,0,1-2.25,2.25h-8a2.252,2.252,0,0,1-2.25-2.25V44.375a2.252,2.252,0,0,1,2.25-2.25h8a2.252,2.252,0,0,1,2.25,2.25Zm8.248-12.5h-4.748V56.875H124.5Z"/></svg>
